# xmcd
#
# Track frame offsets:
# 150
# 41980
# 79594
# 110304
# 127711
# 145590
# 157431
# 188801
# 231713
#
# Disc length: 3495 seconds
#
# Revision: 1
# Processed by: cddbd v1.4PL0 Copyright (c) Steve Scherf et al.
# Submitted via: Axialis_AX_CDPlayer 2.6
#
DISCID=790da509
DTITLE=Rory Gallagher - Live IN Japan 1974 [Vol 2]
DYEAR=1900
DGENRE=
TTITLE0=Hoo Doo Man
TTITLE1=Hands Off
TTITLE2=As The Crow Flies
TTITLE3=Pistol Slapper Blues
TTITLE4=Bankers Blues
TTITLE5=Traditional Blues
TTITLE6=Goin' To My Home Town
TTITLE7=Who's That Comin'
TTITLE8=In Your Town
EXTD=
EXTT0=
EXTT1=
EXTT2=
EXTT3=
EXTT4=
EXTT5=
EXTT6=
EXTT7=
EXTT8=
PLAYORDER=
